<svg width="278" height="223" viewBox="0 0 278 223" fill="none" xmlns="http://www.w3.org/2000/svg">
    <path
        d="M177.057 61.7267L185.918 61.8816L209.993 37.8072L211.155 27.6057C192.022 10.5878 166.848 0.231445 139.295 0.231445C89.4111 0.231445 47.304 34.1743 34.833 80.1544C37.4666 78.3186 43.0825 79.6896 43.0825 79.6896L91.2005 71.7732C91.2005 71.7732 93.6792 67.6679 94.9185 67.9235C105.247 56.6243 119.498 49.6917 134.763 48.5401C150.028 47.3886 165.158 52.1048 177.065 61.7267H177.057Z"
        fill="white" />
    <path
        d="M243.904 80.2398C238.373 59.8887 227.023 41.5938 211.247 27.5981L177.149 61.6959C184.147 67.32 189.794 74.4421 193.675 82.5376C197.556 90.6332 199.572 99.4961 199.574 108.474V114.492C216.166 114.492 229.628 127.994 229.628 144.547C229.628 161.1 216.127 174.601 199.574 174.601H139.45L133.431 180.643V216.724L139.45 222.711H199.574C220.281 222.656 240.122 214.402 254.759 199.756C269.396 185.109 277.636 165.261 277.677 144.555C277.646 117.939 264.23 94.3607 243.827 80.2398H243.904Z"
        fill="white" />
    <path
        d="M79.1784 222.765H139.287V174.647H79.1784C74.9098 174.649 70.6909 173.733 66.808 171.959L58.1325 174.616L34.0581 198.691L31.9512 206.824C45.4962 217.224 62.1091 222.836 79.1861 222.781L79.1784 222.765Z"
        fill="white" />
    <path
        d="M79.1781 66.3975C58.4515 66.4302 38.5831 74.6784 23.9271 89.3344C9.27117 103.99 1.02301 123.859 0.990234 144.585C0.990115 156.654 3.78792 168.559 9.16389 179.365C14.5399 190.171 22.3477 199.583 31.9741 206.863L66.831 172.006C61.5511 169.63 57.0697 165.78 53.9256 160.919C50.7816 156.057 49.1088 150.391 49.1082 144.601C49.1082 128.009 62.6094 114.546 79.1626 114.546C84.9502 114.557 90.6125 116.233 95.4724 119.376C100.332 122.519 104.184 126.995 106.568 132.269L141.425 97.4123C127.126 78.5896 104.554 66.4284 79.1471 66.4284L79.1781 66.3975Z"
        fill="white" />
</svg>
    